<svg xmlns="http://www.w3.org/2000/svg" width="10.854" height="11.854" viewBox="0 0 10.854 11.854">
  <g id="Glass" transform="translate(-1080 -49)">
    <g id="Path_5" data-name="Path 5" transform="translate(1080 49)" fill="none">
      <path d="M5,0A5,5,0,1,1,0,5,5,5,0,0,1,5,0Z" stroke="none"/>
      <path d="M 5 1 C 2.794390201568604 1 1 2.794390201568604 1 5 C 1 7.205610275268555 2.794390201568604 9 5 9 C 7.205610275268555 9 9 7.205610275268555 9 5 C 9 2.794390201568604 7.205610275268555 1 5 1 M 5 0 C 7.761420249938965 0 10 2.238580226898193 10 5 C 10 7.761420249938965 7.761420249938965 10 5 10 C 2.238580226898193 10 0 7.761420249938965 0 5 C 0 2.238580226898193 2.238580226898193 0 5 0 Z" stroke="none" fill="#fff"/>
    </g>
    <line id="Line_2" data-name="Line 2" x2="3" y2="3" transform="translate(1087.5 57.5)" fill="none" stroke="#fff" stroke-width="1"/>
  </g>
</svg>
