<svg xmlns="http://www.w3.org/2000/svg" xmlns:xlink="http://www.w3.org/1999/xlink" width="25" height="26" viewBox="0 0 25 26">
  <defs>
    <clipPath id="clip-path">
      <rect id="Rectangle_11" data-name="Rectangle 11" width="25" height="26" rx="1" transform="translate(111 42)" fill="#fff" stroke="#707070" stroke-width="1"/>
    </clipPath>
  </defs>
  <g id="logo-light" transform="translate(-111 -42)" clip-path="url(#clip-path)">
    <g id="lx2" transform="translate(112.069 42)">
      <rect id="Rectangle_12" data-name="Rectangle 12" width="23" height="23" transform="translate(-0.069)" fill="none"/>
      <line id="Line_11" data-name="Line 11" y2="23" transform="translate(22.931)" fill="#fff"/>
      <line id="Line_12" data-name="Line 12" y1="23" transform="translate(-0.069)" fill="#fff"/>
      <path id="Path_16" data-name="Path 16" d="M13.008,13.006" transform="translate(4.14 4.737)" fill="none"/>
      <line id="Line_13" data-name="Line 13" x1="23" transform="translate(-0.069 23)" fill="#fff"/>
      <path id="Path_17" data-name="Path 17" d="M8.758,2.746l7.817,8.2-7.817,8.2" transform="translate(2.863 1)" fill="none"/>
      <line id="Line_14" data-name="Line 14" y1="2.398" x2="2.285" transform="translate(9.336 11.945)" fill="none" stroke="#fff" stroke-linecap="round" stroke-miterlimit="10" stroke-width="1.6"/>
      <line id="Line_15" data-name="Line 15" y1="1.702" x2="1.623" transform="translate(7.713 14.344)" fill="none"/>
      <line id="Line_16" data-name="Line 16" x1="1.623" y1="1.702" transform="translate(7.713 7.846)" fill="none"/>
      <line id="Line_17" data-name="Line 17" x1="2.285" y1="2.397" transform="translate(9.336 9.548)" fill="none" stroke="#fff" stroke-linecap="round" stroke-miterlimit="10" stroke-width="1.6"/>
      <path id="Path_19" data-name="Path 19" d="M0,0,8.974.215l.215,8.974L.215,8.974Z" transform="translate(13.244 5.448) rotate(45)" fill="none"/>
      <line id="Line_18" data-name="Line 18" x1="3.097" y1="3.248" transform="translate(11.621 11.945)" fill="none" stroke="#fff" stroke-linecap="round" stroke-miterlimit="10" stroke-width="1.6"/>
      <line id="Line_19" data-name="Line 19" y1="3.248" x2="3.097" transform="translate(11.621 8.697)" fill="none" stroke="#fff" stroke-linecap="round" stroke-miterlimit="10" stroke-width="1.6"/>
      <path id="Path_18" data-name="Path 18" d="M8.918,17.418l-6.17-6.473,7.817-8.2" transform="translate(1.057 1)" fill="none" stroke="#fff" stroke-linecap="round" stroke-miterlimit="10" stroke-width="1.6"/>
    </g>
  </g>
</svg>
