<svg xmlns="http://www.w3.org/2000/svg" width="15.882" height="15.179" viewBox="0 0 15.882 15.179">
  <g id="Speech_Bubble_48_" transform="translate(0 -30.536)">
    <g id="Group_1" data-name="Group 1" transform="translate(0 30.536)">
      <path id="Path_3" data-name="Path 3" d="M2.311,45.715H1.186l.8-.864a3.029,3.029,0,0,0,.769-1.729A6.305,6.305,0,0,1,.215,36.245a7.507,7.507,0,0,1,2.645-4.009,8.178,8.178,0,0,1,5.107-1.7,8.153,8.153,0,0,1,5.9,2.184,6.828,6.828,0,0,1,2.012,4.889,6.987,6.987,0,0,1-.505,2.621,6.758,6.758,0,0,1-1.51,2.281,8.136,8.136,0,0,1-5.9,2.193,9.937,9.937,0,0,1-2.67-.369,4.018,4.018,0,0,1-2.986,1.381ZM7.967,31.548a6.816,6.816,0,0,0-6.854,4.968,5.27,5.27,0,0,0,2.363,5.907l.232.152L3.7,42.87a4.263,4.263,0,0,1-.371,1.651,3.307,3.307,0,0,0,1.46-1.085l.2-.253.292.095a8.938,8.938,0,0,0,2.687.413c4.8,0,6.982-3.153,6.982-6.083a5.786,5.786,0,0,0-1.708-4.142,7.284,7.284,0,0,0-5.274-1.919Z" transform="translate(0 -30.536)" fill="#373737"/>
    </g>
  </g>
</svg>
